<svg xmlns="http://www.w3.org/2000/svg" viewBox="0 0 512 512" style="enable-background:new 0 0 512 512" xml:space="preserve"><circle style="fill:#626c7f" cx="255.993" cy="256.004" r="230.966"/><path style="fill:#555e6d" d="M94.722 256.001c0-115.714 85.095-211.548 196.121-228.349C150.109 6.356 25.034 115.382 25.034 256.001c0 140.594 125.055 249.647 265.807 228.349C179.817 467.549 94.722 371.714 94.722 256.001z"/><path style="fill:#6edcf9" d="M256 7.541C118.976 7.541 7.5 118.998 7.5 255.998c0 136.973 111.493 248.46 248.5 248.46 137.025 0 248.501-111.459 248.501-248.46C504.501 119.249 393.217 7.541 256 7.541zm146.706 414.227v.002C265.554 547.787 34.497 448.836 34.497 256.001c0 0-5.132-139.32 128.564-200.996 88.517-41.13 193.661-19.121 258.737 54.314v.002c60.115 67.84 55.703 146.68 55.703 146.68.001 63.268-26.971 123.402-74.795 165.767z"/><path style="fill:#37cae2" d="M34.497 256.001v-.017C34.636 129.242 134.16 15.306 269.656 7.923 126.979.129 7.499 114.068 7.499 255.999c0 136.973 111.493 248.46 248.5 248.46 4.589 0 9.146-.135 13.675-.382-131.497-7.158-235.177-116.863-235.177-248.076z"/><path style="fill:#d37044" d="M200.531 404.055c-6.902 0-12.499-5.597-12.499-12.499V279.568c0-6.903 5.596-12.499 12.499-12.499s12.499 5.595 12.499 12.499v111.988c0 6.902-5.595 12.499-12.499 12.499zM328.519 391.556c0 6.901 5.595 12.499 12.499 12.499 6.901 0 12.499-5.597 12.499-12.499V279.367H328.52v112.189z"/><path style="fill:#c16b3d" d="M200.531 391.556V279.568c0-4.625 2.518-8.651 6.249-10.813a12.432 12.432 0 0 0-6.249-1.686c-6.902 0-12.499 5.595-12.499 12.499v111.988c0 6.901 5.596 12.499 12.499 12.499 2.28 0 4.41-.62 6.249-1.686-3.731-2.162-6.249-6.19-6.249-10.813zM341.018 391.556V279.367h-12.499v112.189c0 9.613 10.432 15.631 18.748 10.813-3.733-2.162-6.249-6.19-6.249-10.813z"/><path style="fill:#e3e5e5" d="M350.242 107.574c-27.412 2.163-48.886 31.252-48.886 66.222v103.571a3.5 3.5 0 0 0 3.5 3.5h45.661a3.5 3.5 0 0 0 3.5-3.5V111.063a3.502 3.502 0 0 0-3.775-3.489z"/><path style="fill:#d6d6d6" d="M327.186 277.367V173.796c0-24.782 10.791-46.598 26.83-57.982 0-4.847.29-6.013-1.125-7.32a3.512 3.512 0 0 0-2.651-.919c-27.412 2.163-48.886 31.252-48.886 66.222v103.571a3.5 3.5 0 0 0 3.5 3.5h25.83a3.502 3.502 0 0 1-3.498-3.501z"/><path d="M256 .042C114.841.042 0 114.863 0 255.999c0 141.255 114.55 255.96 256 255.96 141.159 0 256-114.823 256-255.96C512 114.723 397.279.042 256 .042zm0 496.918c-132.926 0-241.001-107.962-241.001-240.961C14.998 123.134 123.111 15.04 256 15.04c132.914 0 241.002 107.949 241.002 240.957 0 132.868-108.113 240.963-241.002 240.963z"/><path d="M459.157 150.423C320.654-111.809-91.559 86.014 53.145 362.149c137.139 260.959 550.527 65.46 406.012-211.726zM66.161 354.675C-33.225 164.397 177.525-31.705 359.097 68.557l-.013-.006c59.515 33.478 97.217 89.35 107.812 151.081 41.758 243.545-289.431 347.476-400.735 135.043z"/><path d="M242.579 100.851a7.498 7.498 0 0 0-7.499 7.499v76.045c0 12.231-9.951 22.182-22.182 22.182h-4.867v-98.226a7.5 7.5 0 0 0-14.998 0v98.226h-4.868c-12.231 0-22.182-9.95-22.182-22.182V108.35a7.5 7.5 0 0 0-14.998 0v76.045c0 20.501 16.679 37.18 37.18 37.18h4.868v39.468c-7.319 2.974-12.499 10.151-12.499 18.526v111.988c0 11.027 8.971 19.998 19.998 19.998s19.998-8.971 19.998-19.998V369.06a7.5 7.5 0 0 0-14.998 0v22.498c0 2.757-2.243 4.999-4.999 4.999s-4.999-2.243-4.999-4.999V279.569c0-2.757 2.243-4.999 4.999-4.999s4.999 2.243 4.999 4.999v54.494a7.5 7.5 0 0 0 14.998 0v-54.494c0-8.374-5.179-15.551-12.499-18.526v-39.468h4.867c20.501 0 37.179-16.679 37.179-37.18V108.35a7.498 7.498 0 0 0-7.498-7.499zM353.516 100.446c-32.621 0-59.16 32.905-59.16 73.349v40.279c0 4.143 3.357 7.499 7.499 7.499s7.499-3.357 7.499-7.499v-40.279c0-28.798 15.871-52.79 36.662-57.51v156.582h-36.662V249.07c0-4.143-3.357-7.499-7.499-7.499s-7.499 3.357-7.499 7.499v31.296a7.498 7.498 0 0 0 7.499 7.499h19.164v103.69c0 11.027 8.971 19.998 19.998 19.998 11.027 0 19.998-8.971 19.998-19.998V107.943a7.497 7.497 0 0 0-7.499-7.497zm-7.499 291.11a5.005 5.005 0 0 1-4.999 4.999 5.005 5.005 0 0 1-4.999-4.999v-103.69h9.999v103.69z"/></svg>