<?xml version="1.0" encoding="utf-8"?>
<!-- Generator: Adobe Illustrator 16.0.0, SVG Export Plug-In . SVG Version: 6.00 Build 0)  -->
<!DOCTYPE svg PUBLIC "-//W3C//DTD SVG 1.1//EN" "http://www.w3.org/Graphics/SVG/1.1/DTD/svg11.dtd">
<svg version="1.1" id="Layer_1" xmlns="http://www.w3.org/2000/svg" xmlns:xlink="http://www.w3.org/1999/xlink" x="0px" y="0px"
	 width="128px" height="128px" viewBox="0 0 128 128" enable-background="new 0 0 128 128" xml:space="preserve">
<g>
	<g>
		<path fill="#282D33" d="M66.037,113.203c-23.072,0-41.843-19.103-41.843-42.583s18.771-42.583,41.843-42.583
			S107.88,47.14,107.88,70.62S89.109,113.203,66.037,113.203z M66.037,32.061c-20.854,0-37.819,17.298-37.819,38.56
			s16.966,38.56,37.819,38.56s37.819-17.298,37.819-38.56S86.891,32.061,66.037,32.061z"/>
	</g>
	<g>
		<path fill="#282D33" d="M66.037,100.899c-16.411,0-29.763-13.583-29.763-30.279s13.352-30.279,29.763-30.279
			S95.801,53.924,95.801,70.62S82.448,100.899,66.037,100.899z M66.037,44.364c-14.192,0-25.738,11.778-25.738,26.256
			c0,14.477,11.546,26.256,25.738,26.256c14.193,0,25.74-11.779,25.74-26.256C91.777,56.143,80.23,44.364,66.037,44.364z"/>
	</g>
	<g>
		<path fill="#282D33" d="M49.959,70.62h-4.023c0-11.271,9.018-20.439,20.102-20.439v4.023
			C57.172,54.204,49.959,61.568,49.959,70.62z"/>
	</g>
	<g>
		<g>
			<path fill="#282D33" d="M11.937,113.388c-3.66,0-6.639-3.017-6.639-6.725V54.016C2.001,51.917,0,48.291,0,44.273V18.4h4.023
				v25.873c0,2.909,1.599,5.499,4.172,6.761l1.127,0.553v55.076c0,1.489,1.173,2.701,2.614,2.701c1.442,0,2.615-1.212,2.615-2.701
				V51.109l0.871-0.6c2.036-1.399,3.251-3.73,3.251-6.235V18.4h4.023v25.874c0,3.459-1.522,6.707-4.122,8.888v53.501
				C18.575,110.371,15.597,113.388,11.937,113.388z"/>
		</g>
		<g>
			<rect x="9.336" y="18.4" fill="#282D33" width="4.023" height="18.593"/>
		</g>
	</g>
	<g>
		<g>
			<path fill="#282D33" d="M121.359,113.388c-3.66,0-6.639-2.902-6.639-6.472V75.919c-1.265-6.061-1.933-12.983-1.933-20.038
				c0-19.72,5.051-36.075,12.284-39.771L128,14.612v92.304C128,110.485,125.021,113.388,121.359,113.388z M123.976,22.525
				c-3.865,5.545-7.164,17.78-7.164,33.355c0,6.86,0.653,13.572,1.89,19.412l0.044,0.417v31.206c0,1.35,1.173,2.448,2.614,2.448
				c1.442,0,2.616-1.099,2.616-2.448V22.525z"/>
		</g>
		<g>
			<rect x="117.154" y="71.863" fill="#282D33" width="10.599" height="4.024"/>
		</g>
	</g>
</g>
</svg>
